<svg width="1988" height="2041" viewBox="0 0 1988 2041" fill="none" xmlns="http://www.w3.org/2000/svg">
<path d="M205.62 953.64C185.22 941.853 163.347 934.26 140 930.86V1125H84.92V930.86C61.5733 934.26 39.5867 941.853 18.96 953.64L0.26 912.5C16.58 902.753 34.26 895.387 53.3 890.4C72.34 885.413 91.9467 882.92 112.12 882.92C132.52 882.92 152.24 885.413 171.28 890.4C190.547 895.387 208.227 902.753 224.32 912.5L205.62 953.64ZM292.636 966.22C298.983 957.38 307.483 950.693 318.136 946.16C329.016 941.627 341.483 939.36 355.536 939.36V988.32C349.643 987.867 345.676 987.64 343.636 987.64C328.449 987.64 316.549 991.947 307.936 1000.56C299.323 1008.95 295.016 1021.64 295.016 1038.64V1125H241.976V942.08H292.636V966.22ZM571.054 942.08V1125H520.394V1103.92C507.247 1119.79 488.207 1127.72 463.274 1127.72C446.047 1127.72 430.407 1123.87 416.354 1116.16C402.527 1108.45 391.647 1097.46 383.714 1083.18C375.78 1068.9 371.814 1052.35 371.814 1033.54C371.814 1014.73 375.78 998.18 383.714 983.9C391.647 969.62 402.527 958.627 416.354 950.92C430.407 943.213 446.047 939.36 463.274 939.36C486.62 939.36 504.867 946.727 518.014 961.46V942.08H571.054ZM472.454 1084.2C485.827 1084.2 496.934 1079.67 505.774 1070.6C514.614 1061.31 519.034 1048.95 519.034 1033.54C519.034 1018.13 514.614 1005.89 505.774 996.82C496.934 987.527 485.827 982.88 472.454 982.88C458.854 982.88 447.634 987.527 438.794 996.82C429.954 1005.89 425.534 1018.13 425.534 1033.54C425.534 1048.95 429.954 1061.31 438.794 1070.6C447.634 1079.67 458.854 1084.2 472.454 1084.2ZM801.72 942.08L724.54 1125H669.8L592.96 942.08H647.7L698.36 1066.52L750.72 942.08H801.72ZM910.522 1085.22C920.042 1085.22 928.429 1083.86 935.682 1081.14C943.162 1078.19 950.076 1073.66 956.422 1067.54L984.642 1098.14C967.416 1117.86 942.256 1127.72 909.162 1127.72C888.536 1127.72 870.289 1123.75 854.422 1115.82C838.556 1107.66 826.316 1096.44 817.702 1082.16C809.089 1067.88 804.782 1051.67 804.782 1033.54C804.782 1015.63 808.976 999.54 817.362 985.26C825.976 970.753 837.649 959.533 852.382 951.6C867.342 943.44 884.116 939.36 902.702 939.36C920.156 939.36 936.022 943.1 950.302 950.58C964.582 957.833 975.916 968.487 984.302 982.54C992.916 996.367 997.222 1012.8 997.222 1031.84L861.902 1058.02C865.756 1067.09 871.762 1073.89 879.922 1078.42C888.309 1082.95 898.509 1085.22 910.522 1085.22ZM902.702 979.48C889.329 979.48 878.449 983.787 870.062 992.4C861.676 1001.01 857.256 1012.91 856.802 1028.1L945.882 1010.76C943.389 1001.24 938.289 993.647 930.582 987.98C922.876 982.313 913.582 979.48 902.702 979.48ZM1098.49 1127.72C1077.87 1127.72 1061.77 1122.28 1050.21 1111.4C1038.65 1100.29 1032.87 1084.65 1032.87 1064.48V872.72H1085.91V1061.42C1085.91 1069.13 1087.84 1075.13 1091.69 1079.44C1095.77 1083.52 1101.44 1085.56 1108.69 1085.56C1111.41 1085.56 1114.13 1085.22 1116.85 1084.54C1119.8 1083.86 1122.07 1083.07 1123.65 1082.16L1126.03 1123.3C1117.19 1126.25 1108.01 1127.72 1098.49 1127.72ZM1240.89 1085.22C1250.41 1085.22 1258.8 1083.86 1266.05 1081.14C1273.53 1078.19 1280.45 1073.66 1286.79 1067.54L1315.01 1098.14C1297.79 1117.86 1272.63 1127.72 1239.53 1127.72C1218.91 1127.72 1200.66 1123.75 1184.79 1115.82C1168.93 1107.66 1156.69 1096.44 1148.07 1082.16C1139.46 1067.88 1135.15 1051.67 1135.15 1033.54C1135.15 1015.63 1139.35 999.54 1147.73 985.26C1156.35 970.753 1168.02 959.533 1182.75 951.6C1197.71 943.44 1214.49 939.36 1233.07 939.36C1250.53 939.36 1266.39 943.1 1280.67 950.58C1294.95 957.833 1306.29 968.487 1314.67 982.54C1323.29 996.367 1327.59 1012.8 1327.59 1031.84L1192.27 1058.02C1196.13 1067.09 1202.13 1073.89 1210.29 1078.42C1218.68 1082.95 1228.88 1085.22 1240.89 1085.22ZM1233.07 979.48C1219.7 979.48 1208.82 983.787 1200.43 992.4C1192.05 1001.01 1187.63 1012.91 1187.17 1028.1L1276.25 1010.76C1273.76 1001.24 1268.66 993.647 1260.95 987.98C1253.25 982.313 1243.95 979.48 1233.07 979.48ZM1548.89 942.08V1125H1498.23V1103.92C1485.08 1119.79 1466.04 1127.72 1441.11 1127.72C1423.88 1127.72 1408.24 1123.87 1394.19 1116.16C1380.36 1108.45 1369.48 1097.46 1361.55 1083.18C1353.61 1068.9 1349.65 1052.35 1349.65 1033.54C1349.65 1014.73 1353.61 998.18 1361.55 983.9C1369.48 969.62 1380.36 958.627 1394.19 950.92C1408.24 943.213 1423.88 939.36 1441.11 939.36C1464.45 939.36 1482.7 946.727 1495.85 961.46V942.08H1548.89ZM1450.29 1084.2C1463.66 1084.2 1474.77 1079.67 1483.61 1070.6C1492.45 1061.31 1496.87 1048.95 1496.87 1033.54C1496.87 1018.13 1492.45 1005.89 1483.61 996.82C1474.77 987.527 1463.66 982.88 1450.29 982.88C1436.69 982.88 1425.47 987.527 1416.63 996.82C1407.79 1005.89 1403.37 1018.13 1403.37 1033.54C1403.37 1048.95 1407.79 1061.31 1416.63 1070.6C1425.47 1079.67 1436.69 1084.2 1450.29 1084.2ZM1659.53 1127.72C1644.35 1127.72 1629.5 1125.91 1614.99 1122.28C1600.49 1118.43 1588.93 1113.67 1580.31 1108L1597.99 1069.92C1606.15 1075.13 1616.01 1079.44 1627.57 1082.84C1639.13 1086.01 1650.47 1087.6 1661.57 1087.6C1684.01 1087.6 1695.23 1082.05 1695.23 1070.94C1695.23 1065.73 1692.17 1061.99 1686.05 1059.72C1679.93 1057.45 1670.53 1055.53 1657.83 1053.94C1642.87 1051.67 1630.52 1049.07 1620.77 1046.12C1611.03 1043.17 1602.53 1037.96 1595.27 1030.48C1588.25 1023 1584.73 1012.35 1584.73 998.52C1584.73 986.96 1588.02 976.76 1594.59 967.92C1601.39 958.853 1611.14 951.827 1623.83 946.84C1636.75 941.853 1651.94 939.36 1669.39 939.36C1682.31 939.36 1695.12 940.833 1707.81 943.78C1720.73 946.5 1731.39 950.353 1739.77 955.34L1722.09 993.08C1706 984.013 1688.43 979.48 1669.39 979.48C1658.06 979.48 1649.56 981.067 1643.89 984.24C1638.23 987.413 1635.39 991.493 1635.39 996.48C1635.39 1002.15 1638.45 1006.11 1644.57 1008.38C1650.69 1010.65 1660.44 1012.8 1673.81 1014.84C1688.77 1017.33 1701.01 1020.05 1710.53 1023C1720.05 1025.72 1728.33 1030.82 1735.35 1038.3C1742.38 1045.78 1745.89 1056.21 1745.89 1069.58C1745.89 1080.91 1742.49 1091 1735.69 1099.84C1728.89 1108.68 1718.92 1115.59 1705.77 1120.58C1692.85 1125.34 1677.44 1127.72 1659.53 1127.72ZM1962.9 942.08V1094.4C1962.9 1127.95 1954.4 1152.88 1937.4 1169.2C1920.4 1185.52 1895.69 1193.68 1863.28 1193.68C1846.05 1193.68 1829.73 1191.53 1814.32 1187.22C1799.13 1182.91 1786.32 1176.68 1775.9 1168.52L1796.98 1130.44C1804.68 1136.79 1814.09 1141.77 1825.2 1145.4C1836.3 1149.03 1847.52 1150.84 1858.86 1150.84C1876.54 1150.84 1889.46 1146.76 1897.62 1138.6C1905.78 1130.44 1909.86 1117.97 1909.86 1101.2V1095.08C1903.06 1101.88 1895.01 1107.09 1885.72 1110.72C1876.42 1114.35 1866.45 1116.16 1855.8 1116.16C1831.77 1116.16 1812.73 1109.36 1798.68 1095.76C1784.62 1081.93 1777.6 1061.31 1777.6 1033.88V942.08H1830.64V1026.06C1830.64 1055.75 1842.99 1070.6 1867.7 1070.6C1880.39 1070.6 1890.59 1066.52 1898.3 1058.36C1906 1049.97 1909.86 1037.62 1909.86 1021.3V942.08H1962.9Z" fill="#F4F4F4"/>
<path d="M1481.21 1571.57C1572.25 1612.7 1657.62 1664.72 1735.96 1727.03C1839.14 1617.44 1915.57 1489.41 1962.32 1350.53H1557.18C1538.36 1425.65 1513.06 1499.45 1481.21 1571.57Z" fill="#F4F4F4"/>
<path d="M1039.67 1578.02V1980.54C1154.58 1882.6 1251.58 1764.18 1325.14 1631.94C1232.03 1601.2 1136.44 1583.08 1039.67 1578.02Z" fill="#F4F4F4"/>
<path d="M1142.44 2040.63C1330.86 2011.46 1507.06 1930.61 1653.03 1805.87C1584.56 1752.95 1510.45 1708.39 1431.53 1673.04C1356.76 1811.11 1258.65 1935.7 1142.44 2040.63Z" fill="#F4F4F4"/>
<path d="M1400.98 312.901C1474.53 282.683 1543.91 244.807 1608.5 200.064C1471.92 95.9102 1311.7 27.5327 1142.9 0.995789C1243.85 91.9692 1331.3 197.539 1400.98 312.901Z" fill="#F4F4F4"/>
<path d="M1039.67 1464.77C1153.94 1470.16 1266.69 1492.02 1376.18 1529.8C1402.28 1471.17 1423.64 1411.33 1440.37 1350.52H1039.67V1464.77Z" fill="#F4F4F4"/>
<path d="M1348.98 451.958C1247.45 484.371 1143.8 503.215 1039.67 508.23V691.109H1440.68C1418.33 608.643 1387.68 528.418 1348.98 451.958Z" fill="#F4F4F4"/>
<path d="M1697.17 275.912C1622.47 330.473 1541.45 376.077 1455.46 412.455C1499.47 501.458 1533.55 595.004 1557.36 691.11H1961.48C1908.53 535.074 1818.53 392.254 1697.17 275.912Z" fill="#F4F4F4"/>
<path d="M1039.67 60.7454V395.011C1124.42 390.492 1208.84 375.754 1291.92 351.117C1223.63 242.798 1138.05 144.391 1039.67 60.7454Z" fill="#F4F4F4"/>
<path d="M230.395 1727.03C308.673 1664.73 394.03 1612.72 485.097 1571.56C453.251 1499.44 427.953 1425.65 409.109 1350.52H4C50.7729 1489.39 127.198 1617.42 230.395 1727.03Z" fill="#F4F4F4"/>
<path d="M510.861 412.453C424.855 376.075 343.841 330.47 269.139 275.91C147.782 392.264 57.7875 535.072 4.83179 691.108H408.95C432.761 595.001 466.838 501.456 510.861 412.453Z" fill="#F4F4F4"/>
<path d="M926.681 395.012V60.7347C828.333 144.357 742.74 242.776 674.398 351.13C757.49 375.755 841.926 390.493 926.681 395.012Z" fill="#F4F4F4"/>
<path d="M926.682 1980.57V1578.02C829.891 1583.07 734.292 1601.21 641.159 1631.94C714.741 1764.2 811.743 1882.63 926.682 1980.57Z" fill="#F4F4F4"/>
<path d="M590.133 1529.8C699.62 1492.01 812.387 1470.16 926.676 1464.77V1350.53H525.945C542.676 1411.33 564.033 1471.16 590.133 1529.8Z" fill="#F4F4F4"/>
<path d="M534.777 1673.05C455.839 1708.41 381.739 1752.95 313.302 1805.85C459.249 1930.6 635.462 2011.47 823.898 2040.63C707.662 1935.71 609.55 1811.12 534.777 1673.05Z" fill="#F4F4F4"/>
<path d="M926.681 508.23C822.528 503.215 718.87 484.371 617.336 451.958C578.622 528.418 547.991 608.643 525.619 691.109H926.681V508.23Z" fill="#F4F4F4"/>
<path d="M823.447 0.99408C654.633 27.5309 494.397 95.8967 357.807 200.062C422.397 244.817 491.778 282.693 565.335 312.9C635.058 197.513 722.527 91.9439 823.447 0.99408Z" fill="#F4F4F4"/>
</svg>
